<?xml version="1.0" standalone="no"?>
<!DOCTYPE svg PUBLIC "-//W3C//DTD SVG 20010904//EN"
 "http://www.w3.org/TR/2001/REC-SVG-20010904/DTD/svg10.dtd">
<svg version="1.0" xmlns="http://www.w3.org/2000/svg"
 width="512.000000pt" height="512.000000pt" viewBox="0 0 512.000000 512.000000"
 preserveAspectRatio="xMidYMid meet">
<metadata>
Created by potrace 1.11, written by Peter Selinger 2001-2013
</metadata>
<g transform="translate(0.000000,512.000000) scale(0.100000,-0.100000)"
fill="#000000" stroke="none">
<path d="M655 5100 c-55 -26 -80 -50 -107 -101 l-23 -44 0 -1294 c0 -874 3
-1301 10 -1315 6 -12 23 -27 38 -34 26 -12 27 -17 27 -82 0 -65 -1 -70 -27
-82 -15 -7 -32 -22 -38 -34 -7 -14 -10 -335 -9 -985 l0 -964 23 -45 c25 -51
66 -87 119 -106 50 -18 3290 -20 3343 -3 52 18 97 56 121 102 19 36 22 62 26
182 2 77 5 145 7 151 2 8 45 12 128 12 89 1 135 5 162 16 41 17 80 56 97 96
17 39 18 2410 2 2469 -15 50 -44 86 -94 111 -28 14 -60 18 -163 18 -71 0 -130
2 -132 4 -4 4 -7 195 -6 303 l1 41 163 0 c89 0 174 3 188 7 49 13 73 44 83
113 2 10 -14 54 -35 96 l-38 76 35 69 c53 102 48 161 -20 202 -30 19 -48 21
-205 21 l-172 0 3 68 3 67 171 1 c190 1 221 10 246 68 18 44 12 79 -27 156
l-35 69 37 72 c40 79 45 124 19 164 -31 47 -69 55 -251 55 l-165 0 -1 33 c-1
17 0 42 1 55 5 65 -54 157 -122 190 -43 21 -54 21 -1118 21 -1020 0 -1076 0
-1096 -18 -12 -9 -24 -26 -26 -37 -3 -16 -12 -19 -68 -19 -82 -1 -87 1 -94 31
-4 14 -18 29 -32 34 -15 6 -207 10 -467 10 -415 0 -444 -2 -482 -20z"/>
</g>
</svg>
